<svg width="12" height="12" viewBox="0 0 12 12" fill="none" xmlns="http://www.w3.org/2000/svg">
<path d="M11.1552 0.844407C10.172 -0.139455 9.43361 0.00781784 9.43361 0.00781784L5.30726 4.13417L0.688635 8.75211L0 11.9989L3.24749 11.3103L7.86612 6.69371L11.9925 2.56736C11.9918 2.56736 12.1397 1.82895 11.1552 0.844407ZM3.05454 10.9203L1.94727 11.1589C1.82473 10.9238 1.66597 10.7093 1.47681 10.5235C1.29078 10.3343 1.07639 10.1754 0.841361 10.0523L1.08 8.94575L1.40045 8.62598C1.40045 8.62598 2.0025 8.63825 2.68295 9.3187C3.36272 9.99779 3.37567 10.6012 3.37567 10.6012L3.05454 10.9203Z" fill="white"/>
</svg>
