<svg width="31" height="31" viewBox="0 0 31 31" fill="none" xmlns="http://www.w3.org/2000/svg">
<path d="M14.5918 4.60156H16.4082C16.5697 4.60156 16.6504 4.68229 16.6504 4.84375V26.1562C16.6504 26.3177 16.5697 26.3984 16.4082 26.3984H14.5918C14.4303 26.3984 14.3496 26.3177 14.3496 26.1562V4.84375C14.3496 4.68229 14.4303 4.60156 14.5918 4.60156Z" fill="black"/>
<path d="M5.32812 14.3496H25.6719C25.8333 14.3496 25.9141 14.4303 25.9141 14.5918V16.4082C25.9141 16.5697 25.8333 16.6504 25.6719 16.6504H5.32812C5.16667 16.6504 5.08594 16.5697 5.08594 16.4082V14.5918C5.08594 14.4303 5.16667 14.3496 5.32812 14.3496Z" fill="black"/>
</svg>
